<svg width="120" height="120" viewBox="0 0 120 120" fill="none" xmlns="http://www.w3.org/2000/svg">
<g clip-path="url(#clip0_1069_1074)">
<path d="M45 58.75C41.55 58.75 38.75 61.55 38.75 65C38.75 68.45 41.55 71.25 45 71.25C48.45 71.25 51.25 68.45 51.25 65C51.25 61.55 48.45 58.75 45 58.75ZM75 58.75C71.55 58.75 68.75 61.55 68.75 65C68.75 68.45 71.55 71.25 75 71.25C78.45 71.25 81.25 68.45 81.25 65C81.25 61.55 78.45 58.75 75 58.75ZM60 10C32.4 10 10 32.4 10 60C10 87.6 32.4 110 60 110C87.6 110 110 87.6 110 60C110 32.4 87.6 10 60 10ZM60 100C37.95 100 20 82.05 20 60C20 58.55 20.1 57.1 20.25 55.7C32.05 50.45 41.4 40.8 46.3 28.85C55.35 41.65 70.25 50 87.1 50C91 50 94.75 49.55 98.35 48.7C99.4 52.25 100 56.05 100 60C100 82.05 82.05 100 60 100Z" fill="#404040"/>
</g>
<defs>
<clipPath id="clip0_1069_1074">
<rect width="120" height="120" fill="white"/>
</clipPath>
</defs>
</svg>
