<svg width="120" height="120" viewBox="0 0 120 120" fill="none" xmlns="http://www.w3.org/2000/svg">
<g clip-path="url(#clip0_1069_1071)">
<path d="M89.0502 22.35C88.6502 22.35 88.2502 22.25 87.9002 22.05C78.3002 17.1 70.0002 15 60.0502 15C50.1502 15 40.7502 17.35 32.2002 22.05C31.0002 22.7 29.5002 22.25 28.8002 21.05C28.1502 19.85 28.6002 18.3 29.8002 17.65C39.1002 12.6 49.3002 10 60.0502 10C70.7002 10 80.0002 12.35 90.2002 17.6C91.4502 18.25 91.9002 19.75 91.2502 20.95C90.8002 21.85 89.9502 22.35 89.0502 22.35ZM17.5002 48.6C17.0002 48.6 16.5002 48.45 16.0502 48.15C14.9002 47.35 14.6502 45.8 15.4502 44.65C20.4002 37.65 26.7002 32.15 34.2002 28.3C49.9002 20.2 70.0002 20.15 85.7502 28.25C93.2502 32.1 99.5502 37.55 104.5 44.5C105.3 45.6 105.05 47.2 103.9 48C102.75 48.8 101.2 48.55 100.4 47.4C95.9002 41.1 90.2002 36.15 83.4502 32.7C69.1002 25.35 50.7502 25.35 36.4502 32.75C29.6502 36.25 23.9502 41.25 19.4502 47.55C19.0502 48.25 18.3002 48.6 17.5002 48.6ZM48.7502 108.95C48.1002 108.95 47.4502 108.7 47.0002 108.2C42.6502 103.85 40.3002 101.05 36.9502 95C33.5002 88.85 31.7002 81.35 31.7002 73.3C31.7002 58.45 44.4002 46.35 60.0002 46.35C75.6002 46.35 88.3002 58.45 88.3002 73.3C88.3002 74.7 87.2002 75.8 85.8002 75.8C84.4002 75.8 83.3002 74.7 83.3002 73.3C83.3002 61.2 72.8502 51.35 60.0002 51.35C47.1502 51.35 36.7002 61.2 36.7002 73.3C36.7002 80.5 38.3002 87.15 41.3502 92.55C44.5502 98.3 46.7502 100.75 50.6002 104.65C51.5502 105.65 51.5502 107.2 50.6002 108.2C50.0502 108.7 49.4002 108.95 48.7502 108.95ZM84.6002 99.7C78.6502 99.7 73.4002 98.2 69.1002 95.25C61.6502 90.2 57.2002 82 57.2002 73.3C57.2002 71.9 58.3002 70.8 59.7002 70.8C61.1002 70.8 62.2002 71.9 62.2002 73.3C62.2002 80.35 65.8002 87 71.9002 91.1C75.4502 93.5 79.6002 94.65 84.6002 94.65C85.8002 94.65 87.8002 94.5 89.8002 94.15C91.1502 93.9 92.4502 94.8 92.7002 96.2C92.9502 97.55 92.0502 98.85 90.6502 99.1C87.8002 99.65 85.3002 99.7 84.6002 99.7ZM74.5502 110C74.3502 110 74.1002 109.95 73.9002 109.9C65.9502 107.7 60.7502 104.75 55.3002 99.4C48.3002 92.45 44.4502 83.2 44.4502 73.3C44.4502 65.2 51.3502 58.6 59.8502 58.6C68.3502 58.6 75.2502 65.2 75.2502 73.3C75.2502 78.65 79.9002 83 85.6502 83C91.4002 83 96.0502 78.65 96.0502 73.3C96.0502 54.45 79.8002 39.15 59.8002 39.15C45.6002 39.15 32.6002 47.05 26.7502 59.3C24.8002 63.35 23.8002 68.1 23.8002 73.3C23.8002 77.2 24.1502 83.35 27.1502 91.35C27.6502 92.65 27.0002 94.1 25.7002 94.55C24.4002 95.05 22.9502 94.35 22.5002 93.1C20.0502 86.55 18.8502 80.05 18.8502 73.3C18.8502 67.3 20.0002 61.85 22.2502 57.1C28.9002 43.15 43.6502 34.1 59.8002 34.1C82.5502 34.1 101.05 51.65 101.05 73.25C101.05 81.35 94.1502 87.95 85.6502 87.95C77.1502 87.95 70.2502 81.35 70.2502 73.25C70.2502 67.9 65.6002 63.55 59.8502 63.55C54.1002 63.55 49.4502 67.9 49.4502 73.25C49.4502 81.8 52.7502 89.8 58.8002 95.8C63.5502 100.5 68.1002 103.1 75.1502 105.05C76.5002 105.4 77.2502 106.8 76.9002 108.1C76.6502 109.25 75.6002 110 74.5502 110Z" fill="#404040"/>
</g>
<defs>
<clipPath id="clip0_1069_1071">
<rect width="120" height="120" fill="white"/>
</clipPath>
</defs>
</svg>
