<svg width="120" height="120" viewBox="0 0 120 120" fill="none" xmlns="http://www.w3.org/2000/svg">
<path d="M60 110C53.0833 110 46.5833 108.688 40.5 106.062C34.4167 103.438 29.125 99.875 24.625 95.375C20.125 90.875 16.5625 85.5833 13.9375 79.5C11.3125 73.4167 10 66.9167 10 60C10 53.0833 11.3125 46.5833 13.9375 40.5C16.5625 34.4167 20.125 29.125 24.625 24.625C29.125 20.125 34.4167 16.5625 40.5 13.9375C46.5833 11.3125 53.0833 10 60 10C66.9167 10 73.4167 11.3125 79.5 13.9375C85.5833 16.5625 90.875 20.125 95.375 24.625C99.875 29.125 103.438 34.4167 106.062 40.5C108.688 46.5833 110 53.0833 110 60C110 66.9167 108.688 73.4167 106.062 79.5C103.438 85.5833 99.875 90.875 95.375 95.375C90.875 99.875 85.5833 103.438 79.5 106.062C73.4167 108.688 66.9167 110 60 110ZM60 100C71.1667 100 80.625 96.125 88.375 88.375C96.125 80.625 100 71.1667 100 60C100 59.4167 99.9792 58.8125 99.9375 58.1875C99.8958 57.5625 99.875 57.0417 99.875 56.625C99.4583 59.0417 98.3333 61.0417 96.5 62.625C94.6667 64.2083 92.5 65 90 65H80C77.25 65 74.8958 64.0208 72.9375 62.0625C70.9792 60.1042 70 57.75 70 55V50H50V40C50 37.25 50.9792 34.8958 52.9375 32.9375C54.8958 30.9792 57.25 30 60 30H65C65 28.0833 65.5208 26.3958 66.5625 24.9375C67.6042 23.4792 68.875 22.2917 70.375 21.375C68.7083 20.9583 67.0208 20.625 65.3125 20.375C63.6042 20.125 61.8333 20 60 20C48.8333 20 39.375 23.875 31.625 31.625C23.875 39.375 20 48.8333 20 60H45C50.5 60 55.2083 61.9583 59.125 65.875C63.0417 69.7917 65 74.5 65 80V85H50V98.75C51.6667 99.1667 53.3125 99.4792 54.9375 99.6875C56.5625 99.8958 58.25 100 60 100Z" fill="#404040"/>
</svg>
