<svg width="120" height="120" viewBox="0 0 120 120" fill="none" xmlns="http://www.w3.org/2000/svg">
<g clip-path="url(#clip0_1069_1037)">
<path d="M60 10C40.65 10 25 25.65 25 45C25 53.7 27.5 61.85 32.05 69.2C36.8 76.9 43.05 83.5 47.85 91.2C50.2 94.95 51.9 98.45 53.7 102.5C55 105.25 56.05 110 60 110C63.95 110 65 105.25 66.25 102.5C68.1 98.45 69.75 94.95 72.1 91.2C76.9 83.55 83.15 76.95 87.9 69.2C92.5 61.85 95 53.7 95 45C95 25.65 79.35 10 60 10ZM60 58.75C53.1 58.75 47.5 53.15 47.5 46.25C47.5 39.35 53.1 33.75 60 33.75C66.9 33.75 72.5 39.35 72.5 46.25C72.5 53.15 66.9 58.75 60 58.75Z" fill="#404040"/>
</g>
<defs>
<clipPath id="clip0_1069_1037">
<rect width="120" height="120" fill="white"/>
</clipPath>
</defs>
</svg>
